Coordinates
version=1
nRows=17
nColumns=24
inDegrees=yes

Units are S.I. units (second, meters, Newtons, ...)
Angles are in degrees.

endheader
time	pelvis_tilt	pelvis_list	pelvis_rotation	pelvis_tx	pelvis_ty	pelvis_tz	hip_flexion_r	hip_adduction_r	hip_rotation_r	knee_angle_r	ankle_angle_r	subtalar_angle_r	mtp_angle_r	hip_flexion_l	hip_adduction_l	hip_rotation_l	knee_angle_l	ankle_angle_l	subtalar_angle_l	mtp_angle_l	lumbar_extension	lumbar_bending	lumbar_rotation
      1.58750000	      5.89821167	      5.85052206	     -3.88535587	      0.40777560	      1.07699339	      0.30860380	     11.85105588	     -7.54391675	      2.37228800	    -62.14668333	      1.38094740	    -12.10347844	      8.56083031	     -1.83827519	     11.80729923	     -3.36155255	     -3.51911656	     -0.19161834	     -2.25244925	     -1.23164980	     -0.99144289	     -4.32768175	      0.31063249
      1.59166667	      5.90930789	      5.87747336	     -3.74207435	      0.41241464	      1.07735198	      0.30846569	     12.32321556	     -7.51457117	      2.45422526	    -61.76323619	      1.83426790	    -12.56440128	      8.42883558	     -2.25762458	     11.84771322	     -3.20633337	     -3.30322466	     -0.08349102	     -2.23354083	     -1.30645750	     -1.04732171	     -4.38857923	      0.15684580
      1.59583333	      5.92324035	      5.91947153	     -3.62659610	      0.41702191	      1.07766457	      0.30828792	     12.79863138	     -7.50712061	      2.56716116	    -61.35560074	      2.21454959	    -12.94190841	      8.28334286	     -2.68685618	     11.91274001	     -3.02152187	     -3.06066782	      0.00479867	     -2.19697471	     -1.38996601	     -1.07533477	     -4.43535166	     -0.00225845
      1.60000000	      5.91855708	      5.95260970	     -3.55173311	      0.42161664	      1.07792251	      0.30818714	     13.29286679	     -7.47815064	      2.74146769	    -60.89541174	      2.41629305	    -13.09223365	      8.24133160	     -3.09845055	     11.96412836	     -2.87106649	     -2.80166180	      0.04105134	     -2.12981500	     -1.41275625	     -1.12444688	     -4.45321371	     -0.05618008
      1.60416667	      5.95238225	      6.01830526	     -3.44738884	      0.42616201	      1.07817991	      0.30793749	     13.74001683	     -7.51287299	      2.84084934	    -60.44284879	      2.88574653	    -13.45346393	      8.14730078	     -3.55283038	     12.06558365	     -2.66333840	     -2.53738056	      0.14401435	     -2.09267060	     -1.46599598	     -1.10517982	     -4.49467333	     -0.16732844
      1.60833333	      5.92257281	      6.04206731	     -3.33574301	      0.43076688	      1.07838151	      0.30790133	     14.22112704	     -7.46730381	      2.97874634	    -59.89198231	      3.08944915	    -13.58703132	      8.10701586	     -3.93542914	     12.08967237	     -2.54857945	     -2.29696316	      0.19053295	     -2.05873736	     -1.48862101	     -1.17104809	     -4.53791531	     -0.22050878
      1.61250000	      5.93865337	      6.10876858	     -3.24043349	      0.43531093	      1.07856524	      0.30766659	     14.66559819	     -7.50072995	      3.08550537	    -59.36154082	      3.51614377	    -13.88588391	      8.01560236	     -4.37932310	     12.18805900	     -2.31417391	     -2.01182398	      0.29416259	     -2.02884651	     -1.54174284	     -1.12472229	     -4.57272889	     -0.34181362
      1.61666667	      5.89858709	      6.13661795	     -3.12547699	      0.43989058	      1.07869591	      0.30763036	     15.13628862	     -7.46271985	      3.21510249	    -58.74252145	      3.70238076	    -13.99005553	      7.97261133	     -4.75145783	     12.21316159	     -2.20038076	     -1.76890448	      0.34229478	     -2.00562144	     -1.56692351	     -1.18404056	     -4.62597898	     -0.40010396
      1.62083333	      5.87489118	      6.18350147	     -3.04000662	      0.44447022	      1.07879773	      0.30753942	     15.58996555	     -7.45581942	      3.35026220	    -58.10401764	      3.93274729	    -14.11608957	      7.92793035	     -5.15230189	     12.27134807	     -2.03634194	     -1.48925082	      0.40171347	     -1.96719682	     -1.59297765	     -1.18376339	     -4.67421986	     -0.46397811
      1.62500000	      5.88701020	      6.24991162	     -2.93764556	      0.44901023	      1.07890031	      0.30732561	     15.99800924	     -7.49232471	      3.43740697	    -57.45765834	      4.27105558	    -14.30102701	      7.83798447	     -5.59753661	     12.36206549	     -1.78979824	     -1.19840749	      0.50647601	     -1.96318386	     -1.64839887	     -1.11669005	     -4.71507365	     -0.59338480
      1.62916667	      5.85540708	      6.29508970	     -2.83184473	      0.45357245	      1.07893966	      0.30721043	     16.43045091	     -7.48994980	      3.54222576	    -56.74712117	      4.47602274	    -14.38860344	      7.74220575	     -5.99278183	     12.41275893	     -1.58384120	     -0.92034805	      0.58088764	     -1.97703148	     -1.70989463	     -1.11595893	     -4.76527149	     -0.72549343
      1.63333333	      5.80423866	      6.34792689	     -2.72848970	      0.45810186	      1.07891843	      0.30717207	     16.87620976	     -7.48743105	      3.66228648	    -56.00001180	      4.58164582	    -14.41843580	      7.70608735	     -6.34486104	     12.46268641	     -1.50430015	     -0.68472201	      0.61799072	     -1.96565843	     -1.73282952	     -1.16850398	     -4.83125092	     -0.77024357
      1.63750000	      5.74906010	      6.39450037	     -2.55431801	      0.46271453	      1.07889544	      0.30689000	     17.28451393	     -7.51939700	      3.66967498	    -55.21322741	      4.83647443	    -14.49680750	      7.43944456	     -6.73146649	     12.51154352	     -1.12407005	     -0.40089214	      0.77206615	     -2.14002073	     -1.91563423	     -1.04646216	     -4.88487071	     -1.09285527
      1.64166667	      5.69509078	      6.46316836	     -2.50554858	      0.46725087	      1.07877730	      0.30687130	     17.72989642	     -7.52870463	      3.80975614	    -54.41981407	      4.88213467	    -14.49694531	      7.41103953	     -7.08618630	     12.58930908	     -1.06390935	     -0.12503034	      0.77741815	     -2.09745268	     -1.93429371	     -1.10382410	     -4.95903138	     -1.11377778
      1.64583333	      5.69177344	      6.52929071	     -2.47420293	      0.47176271	      1.07869083	      0.30686809	     18.10617833	     -7.53624627	      3.97989248	    -53.57946855	      4.91778507	    -14.49679419	      7.33823184	     -7.50775338	     12.66537775	     -0.89107893	      0.16168366	      0.81464275	     -2.06059227	     -1.98421018	     -1.02544240	     -5.03281854	     -1.16688217
      1.65000000	      5.63072720	      6.59189854	     -2.39772333	      0.47629308	      1.07852405	      0.30687400	     18.51861882	     -7.54154122	      4.10144361	    -52.70465132	      4.96317252	    -14.49900295	      7.30350859	     -7.84831709	     12.72289233	     -0.81541661	      0.40057482	      0.85405468	     -2.04101967	     -2.00764798	     -1.05937290	     -5.10446974	     -1.19013616
      1.65416667	      5.60542524	      6.66338663	     -2.35043091	      0.48087100	      1.07835417	      0.30680258	     18.88620790	     -7.56851600	      4.21000112	    -51.80381848	      4.94457105	    -14.48843013	      7.22289985	     -8.25174121	     12.80529654	     -0.61992088	      0.69286312	      0.93985552	     -2.02650280	     -2.06431280	     -0.95618898	     -5.17079104	     -1.24788386
